<svg width="491" height="129" viewBox="0 0 491 129" fill="none" xmlns="http://www.w3.org/2000/svg">
<path d="M42.0968 18.7837C18.8473 18.7837 0 39.0563 0 62.3057V119.571C1.60511 122.578 4.77267 124.626 8.41921 124.626C12.066 124.626 15.2335 122.578 16.8387 119.571C18.4438 122.578 21.6113 124.626 25.2581 124.626C28.9049 124.626 32.0725 122.578 33.6776 119.571C35.2824 122.578 38.45 124.626 42.0968 124.626C45.5851 124.626 48.6311 122.75 50.2942 119.955C51.9576 122.75 55.0037 124.626 58.4917 124.626C62.1385 124.626 65.306 122.578 66.9111 119.571H67.3549C68.96 122.578 72.1276 124.626 75.7741 124.626C79.4209 124.626 82.5885 122.578 84.1936 119.571V62.306C84.1936 39.0566 65.3462 18.7837 42.0968 18.7837V18.7837Z" fill="white"/>
<path d="M25.7019 56.661V65.0005H25.6895C25.6895 65.0129 25.7019 65.0174 25.7019 65.0239C25.7019 68.2991 23.0446 70.9561 19.7696 70.9561C16.4944 70.9561 13.8373 68.2988 13.8373 65.0239V65.0005H13.812V56.661H13.8834C14.1481 53.6231 16.6626 51.2327 19.7698 51.2327C22.8685 51.2327 25.3829 53.6231 25.6436 56.661H25.7019V56.661ZM70.3235 56.661C70.0626 53.6231 67.5484 51.2327 64.4498 51.2327C61.3425 51.2327 58.8283 53.6231 58.5634 56.661H58.4919V65.0005H58.5173V65.0239C58.5173 68.2991 61.1746 70.9561 64.4495 70.9561C67.7245 70.9561 70.3818 68.2988 70.3818 65.0239C70.3818 65.0174 70.3694 65.0132 70.3694 65.0005H70.3818V56.661H70.3235V56.661Z" fill="#061B2A"/>
<path d="M47.2418 85.5068L47.3472 85.8065L47.6255 86.6533L48.0241 87.9692C48.1715 88.4774 48.333 89.0507 48.4989 89.676C48.6783 90.347 48.8493 91.0203 49.0119 91.6956C49.1892 92.4122 49.3576 93.168 49.5345 93.9496C49.7012 94.7314 49.8771 95.5391 50.0353 96.3599C50.204 97.1807 50.3496 98.0146 50.5054 98.8485C50.647 99.6825 50.7956 100.516 50.9226 101.337C51.0468 102.158 51.183 102.966 51.281 103.748C51.3805 104.53 51.4526 105.285 51.4995 106.002C51.541 106.718 51.5675 107.396 51.5648 108.021C51.568 108.647 51.5427 109.22 51.5114 109.728C51.4762 110.236 51.4323 110.679 51.3815 111.044C51.286 111.774 51.1743 112.19 51.1743 112.19C49.8319 117.204 44.6795 120.18 39.666 118.838C36.3101 117.939 33.8646 115.319 33.0186 112.19C33.0186 112.19 32.9069 111.774 32.8114 111.044C32.7606 110.679 32.7167 110.236 32.6815 109.728C32.6502 109.22 32.6247 108.647 32.6281 108.021C32.6254 107.396 32.6519 106.718 32.6934 106.002C32.7402 105.285 32.8124 104.529 32.9119 103.748C33.0101 102.966 33.146 102.158 33.2703 101.337C33.3973 100.516 33.5459 99.6825 33.6875 98.8485C33.8431 98.0146 33.9887 97.1809 34.1576 96.3599C34.3158 95.5391 34.4919 94.7312 34.6584 93.9496C34.8352 93.1678 35.0037 92.4122 35.181 91.6956C35.3514 90.979 35.5288 90.3016 35.694 89.676C35.8458 89.1053 36.0041 88.5363 36.1687 87.9692L36.5674 86.6533L36.8457 85.8065L36.9511 85.5068C37.9497 82.6652 41.0627 81.1715 43.9043 82.1699C45.5191 82.7371 46.7073 84.0121 47.2418 85.5068ZM40.9496 34.3467C42.2891 34.9802 43.8885 34.4082 44.522 33.0687C44.522 33.0687 44.5646 32.9787 44.6331 32.81C44.7023 32.6413 44.8065 32.3938 44.9206 32.0788C45.0409 31.7638 45.1808 31.3813 45.3261 30.9425C45.4722 30.5037 45.6312 30.0086 45.7878 29.4686C45.9586 28.8907 46.1176 28.3093 46.2645 27.7248C46.4228 27.1059 46.577 26.4536 46.7212 25.7784C46.7971 25.4408 46.8658 25.0977 46.9335 24.7505C47.0044 24.4032 47.0712 24.0515 47.1319 23.6973C47.2641 22.9886 47.3718 22.2685 47.4899 21.5484C47.5948 20.8284 47.7066 20.1083 47.7947 19.3996C47.8914 18.6909 47.9691 17.9934 48.0452 17.3182C48.1162 16.6433 48.1789 15.9907 48.2293 15.3718C48.2786 14.7529 48.3203 14.168 48.3491 13.6281C48.4091 12.5481 48.4285 11.6479 48.428 11.0179C48.4252 10.3878 48.4086 10.0279 48.4086 10.0279C48.2504 6.81296 45.6684 4.15762 42.3875 4.00681C38.9015 3.84632 35.9457 6.5421 35.7853 10.0279C35.7853 10.0279 35.7686 10.3878 35.7659 11.0179C35.7654 11.6479 35.7848 12.5478 35.8448 13.6281C35.8736 14.168 35.9152 14.7532 35.9646 15.3718C36.015 15.9907 36.0777 16.6431 36.1487 17.3182C36.2248 17.9932 36.3024 18.6907 36.3992 19.3996C36.4872 20.1083 36.5994 20.8284 36.704 21.5484C36.8221 22.2685 36.9298 22.9886 37.062 23.6973C37.1227 24.0517 37.1895 24.4032 37.2604 24.7505C37.3281 25.0977 37.3968 25.441 37.4727 25.7784C37.612 26.4302 37.7642 27.0791 37.9294 27.7248C38.0857 28.3437 38.2456 28.9286 38.4061 29.4686C38.5503 29.9629 38.7042 30.4543 38.8677 30.9425C39.0131 31.3813 39.153 31.7638 39.2733 32.0788C39.3877 32.3938 39.4916 32.6413 39.5608 32.81C39.6292 32.9787 39.6719 33.0687 39.6719 33.0687C39.9369 33.6299 40.3885 34.0816 40.9496 34.3467V34.3467Z" fill="#933EFF"/>
<path d="M22.4054 77.0526C22.4054 73.9957 31.2215 74.2041 42.0968 74.2041C52.9722 74.2041 61.7883 73.9957 61.7883 77.0526C61.7883 80.1096 48.7321 90.0084 42.0968 90.0084C35.4616 90.0084 22.4054 80.1096 22.4054 77.0526Z" fill="#00BC9A"/>
<path d="M61.7883 76.3651C61.7883 79.4386 52.9722 80.7255 42.0968 80.7255C31.2215 80.7255 22.4054 79.4386 22.4054 76.3651C22.4054 73.2915 35.4616 63.7943 42.0968 63.7943C48.7321 63.7943 61.7883 73.2915 61.7883 76.3651V76.3651Z" fill="#00DCB4"/>
<path d="M145.16 53.44C145.16 48.4 146.168 43.912 148.184 39.976C150.248 36.04 153.176 32.992 156.968 30.832C160.76 28.624 165.224 27.52 170.36 27.52C174.776 27.52 178.712 28.36 182.168 30.04C185.672 31.672 188.504 34 190.664 37.024C192.872 40.048 194.336 43.576 195.056 47.608H178.208C177.44 45.928 176.336 44.632 174.896 43.72C173.504 42.76 171.896 42.28 170.072 42.28C167.384 42.28 165.248 43.288 163.664 45.304C162.128 47.32 161.36 50.032 161.36 53.44C161.36 56.848 162.128 59.56 163.664 61.576C165.248 63.592 167.384 64.6 170.072 64.6C171.896 64.6 173.504 64.144 174.896 63.232C176.336 62.272 177.44 60.952 178.208 59.272H195.056C194.336 63.304 192.872 66.832 190.664 69.856C188.504 72.88 185.672 75.232 182.168 76.912C178.712 78.544 174.776 79.36 170.36 79.36C165.224 79.36 160.76 78.28 156.968 76.12C153.176 73.912 150.248 70.84 148.184 66.904C146.168 62.968 145.16 58.48 145.16 53.44ZM229.251 38.104C233.907 38.104 237.531 39.664 240.123 42.784C242.763 45.904 244.083 50.128 244.083 55.456V79H228.171V57.472C228.171 55.552 227.643 54.04 226.587 52.936C225.579 51.784 224.211 51.208 222.483 51.208C220.707 51.208 219.315 51.784 218.307 52.936C217.299 54.04 216.795 55.552 216.795 57.472V79H200.811V25.72H216.795V44.584C218.043 42.664 219.699 41.104 221.763 39.904C223.875 38.704 226.371 38.104 229.251 38.104ZM259.078 35.152C256.294 35.152 254.062 34.408 252.382 32.92C250.702 31.432 249.862 29.56 249.862 27.304C249.862 25 250.702 23.104 252.382 21.616C254.062 20.08 256.294 19.312 259.078 19.312C261.814 19.312 264.022 20.08 265.702 21.616C267.382 23.104 268.222 25 268.222 27.304C268.222 29.56 267.382 31.432 265.702 32.92C264.022 34.408 261.814 35.152 259.078 35.152ZM266.998 38.392V79H251.014V38.392H266.998ZM272.057 58.696C272.057 54.472 272.921 50.8 274.649 47.68C276.425 44.512 278.873 42.088 281.993 40.408C285.161 38.728 288.761 37.888 292.793 37.888C298.073 37.888 302.513 39.376 306.113 42.352C309.761 45.328 312.065 49.456 313.025 54.736H296.105C295.481 52.624 294.257 51.568 292.433 51.568C291.137 51.568 290.105 52.168 289.337 53.368C288.617 54.568 288.257 56.344 288.257 58.696C288.257 61.048 288.617 62.824 289.337 64.024C290.105 65.224 291.137 65.824 292.433 65.824C294.257 65.824 295.481 64.768 296.105 62.656H313.025C312.065 67.936 309.761 72.064 306.113 75.04C302.513 78.016 298.073 79.504 292.793 79.504C288.761 79.504 285.161 78.664 281.993 76.984C278.873 75.304 276.425 72.904 274.649 69.784C272.921 66.616 272.057 62.92 272.057 58.696ZM344.084 79L334.076 62.8V79H318.092V25.72H334.076V53.584L344.228 38.392H362.804L347.612 58.84L363.164 79H344.084ZM406.06 58.336C406.06 59.44 405.988 60.496 405.844 61.504H380.14C380.38 65.008 381.844 66.76 384.532 66.76C386.26 66.76 387.508 65.968 388.276 64.384H405.196C404.62 67.264 403.396 69.856 401.524 72.16C399.7 74.416 397.372 76.216 394.54 77.56C391.756 78.856 388.684 79.504 385.324 79.504C381.292 79.504 377.692 78.664 374.524 76.984C371.404 75.304 368.956 72.904 367.18 69.784C365.452 66.616 364.588 62.92 364.588 58.696C364.588 54.472 365.452 50.8 367.18 47.68C368.956 44.512 371.404 42.088 374.524 40.408C377.692 38.728 381.292 37.888 385.324 37.888C389.356 37.888 392.932 38.728 396.052 40.408C399.22 42.04 401.668 44.392 403.396 47.464C405.172 50.536 406.06 54.16 406.06 58.336ZM389.86 54.52C389.86 53.176 389.428 52.168 388.564 51.496C387.7 50.776 386.62 50.416 385.324 50.416C382.492 50.416 380.836 51.784 380.356 54.52H389.86ZM439.556 38.104C444.212 38.104 447.836 39.664 450.428 42.784C453.068 45.904 454.388 50.128 454.388 55.456V79H438.476V57.472C438.476 55.552 437.948 54.04 436.892 52.936C435.884 51.784 434.516 51.208 432.788 51.208C431.012 51.208 429.62 51.784 428.612 52.936C427.604 54.04 427.1 55.552 427.1 57.472V79H411.116V38.392H427.1V44.584C428.348 42.664 430.004 41.104 432.068 39.904C434.18 38.704 436.676 38.104 439.556 38.104ZM482.847 24.64L480.975 58.768H467.295L465.423 24.64H482.847ZM474.135 79.576C471.351 79.576 469.119 78.832 467.439 77.344C465.759 75.856 464.919 73.984 464.919 71.728C464.919 69.424 465.759 67.528 467.439 66.04C469.119 64.504 471.351 63.736 474.135 63.736C476.871 63.736 479.079 64.504 480.759 66.04C482.439 67.528 483.279 69.424 483.279 71.728C483.279 73.984 482.439 75.856 480.759 77.344C479.079 78.832 476.871 79.576 474.135 79.576Z" fill="white"/>
<path d="M144.032 110.624C144.032 108.992 144.4 107.528 145.136 106.232C145.872 104.92 146.872 103.896 148.136 103.16C149.416 102.424 150.832 102.056 152.384 102.056C154.208 102.056 155.8 102.496 157.16 103.376C158.52 104.256 159.512 105.504 160.136 107.12H157.52C157.056 106.112 156.384 105.336 155.504 104.792C154.64 104.248 153.6 103.976 152.384 103.976C151.216 103.976 150.168 104.248 149.24 104.792C148.312 105.336 147.584 106.112 147.056 107.12C146.528 108.112 146.264 109.28 146.264 110.624C146.264 111.952 146.528 113.12 147.056 114.128C147.584 115.12 148.312 115.888 149.24 116.432C150.168 116.976 151.216 117.248 152.384 117.248C153.6 117.248 154.64 116.984 155.504 116.456C156.384 115.912 157.056 115.136 157.52 114.128H160.136C159.512 115.728 158.52 116.968 157.16 117.848C155.8 118.712 154.208 119.144 152.384 119.144C150.832 119.144 149.416 118.784 148.136 118.064C146.872 117.328 145.872 116.312 145.136 115.016C144.4 113.72 144.032 112.256 144.032 110.624ZM169.123 119.216C167.891 119.216 166.771 118.936 165.763 118.376C164.771 117.816 163.987 117.024 163.411 116C162.851 114.96 162.571 113.76 162.571 112.4C162.571 111.056 162.859 109.872 163.435 108.848C164.027 107.808 164.827 107.016 165.835 106.472C166.843 105.912 167.971 105.632 169.219 105.632C170.467 105.632 171.595 105.912 172.603 106.472C173.611 107.016 174.403 107.8 174.979 108.824C175.571 109.848 175.867 111.04 175.867 112.4C175.867 113.76 175.563 114.96 174.955 116C174.363 117.024 173.555 117.816 172.531 118.376C171.507 118.936 170.371 119.216 169.123 119.216ZM169.123 117.296C169.907 117.296 170.643 117.112 171.331 116.744C172.019 116.376 172.571 115.824 172.987 115.088C173.419 114.352 173.635 113.456 173.635 112.4C173.635 111.344 173.427 110.448 173.011 109.712C172.595 108.976 172.051 108.432 171.379 108.08C170.707 107.712 169.979 107.528 169.195 107.528C168.395 107.528 167.659 107.712 166.987 108.08C166.331 108.432 165.803 108.976 165.403 109.712C165.003 110.448 164.803 111.344 164.803 112.4C164.803 113.472 164.995 114.376 165.379 115.112C165.779 115.848 166.307 116.4 166.963 116.768C167.619 117.12 168.339 117.296 169.123 117.296ZM194.555 105.608C195.579 105.608 196.491 105.824 197.291 106.256C198.091 106.672 198.723 107.304 199.187 108.152C199.651 109 199.883 110.032 199.883 111.248V119H197.723V111.56C197.723 110.248 197.395 109.248 196.739 108.56C196.099 107.856 195.227 107.504 194.123 107.504C192.987 107.504 192.083 107.872 191.411 108.608C190.739 109.328 190.403 110.376 190.403 111.752V119H188.243V111.56C188.243 110.248 187.915 109.248 187.259 108.56C186.619 107.856 185.747 107.504 184.643 107.504C183.507 107.504 182.603 107.872 181.931 108.608C181.259 109.328 180.923 110.376 180.923 111.752V119H178.739V105.848H180.923V107.744C181.355 107.056 181.931 106.528 182.651 106.16C183.387 105.792 184.195 105.608 185.075 105.608C186.179 105.608 187.155 105.856 188.003 106.352C188.851 106.848 189.483 107.576 189.899 108.536C190.267 107.608 190.875 106.888 191.723 106.376C192.571 105.864 193.515 105.608 194.555 105.608ZM215.465 111.92C215.465 112.336 215.441 112.776 215.393 113.24H204.881C204.961 114.536 205.401 115.552 206.201 116.288C207.017 117.008 208.001 117.368 209.153 117.368C210.097 117.368 210.881 117.152 211.505 116.72C212.145 116.272 212.593 115.68 212.849 114.944H215.201C214.849 116.208 214.145 117.24 213.089 118.04C212.033 118.824 210.721 119.216 209.153 119.216C207.905 119.216 206.785 118.936 205.793 118.376C204.817 117.816 204.049 117.024 203.489 116C202.929 114.96 202.649 113.76 202.649 112.4C202.649 111.04 202.921 109.848 203.465 108.824C204.009 107.8 204.769 107.016 205.745 106.472C206.737 105.912 207.873 105.632 209.153 105.632C210.401 105.632 211.505 105.904 212.465 106.448C213.425 106.992 214.161 107.744 214.673 108.704C215.201 109.648 215.465 110.72 215.465 111.92ZM213.209 111.464C213.209 110.632 213.025 109.92 212.657 109.328C212.289 108.72 211.785 108.264 211.145 107.96C210.521 107.64 209.825 107.48 209.057 107.48C207.953 107.48 207.009 107.832 206.225 108.536C205.457 109.24 205.017 110.216 204.905 111.464H213.209ZM226.93 108.296C227.378 107.512 228.034 106.872 228.898 106.376C229.762 105.88 230.746 105.632 231.85 105.632C233.034 105.632 234.098 105.912 235.042 106.472C235.986 107.032 236.73 107.824 237.274 108.848C237.818 109.856 238.09 111.032 238.09 112.376C238.09 113.704 237.818 114.888 237.274 115.928C236.73 116.968 235.978 117.776 235.018 118.352C234.074 118.928 233.018 119.216 231.85 119.216C230.714 119.216 229.714 118.968 228.85 118.472C228.002 117.976 227.362 117.344 226.93 116.576V119H224.746V101.24H226.93V108.296ZM235.858 112.376C235.858 111.384 235.658 110.52 235.258 109.784C234.858 109.048 234.314 108.488 233.626 108.104C232.954 107.72 232.21 107.528 231.394 107.528C230.594 107.528 229.85 107.728 229.162 108.128C228.49 108.512 227.946 109.08 227.53 109.832C227.13 110.568 226.93 111.424 226.93 112.4C226.93 113.392 227.13 114.264 227.53 115.016C227.946 115.752 228.49 116.32 229.162 116.72C229.85 117.104 230.594 117.296 231.394 117.296C232.21 117.296 232.954 117.104 233.626 116.72C234.314 116.32 234.858 115.752 235.258 115.016C235.658 114.264 235.858 113.384 235.858 112.376ZM240.149 112.376C240.149 111.032 240.421 109.856 240.965 108.848C241.509 107.824 242.253 107.032 243.197 106.472C244.157 105.912 245.221 105.632 246.389 105.632C247.541 105.632 248.541 105.88 249.389 106.376C250.237 106.872 250.869 107.496 251.285 108.248V105.848H253.493V119H251.285V116.552C250.853 117.32 250.205 117.96 249.341 118.472C248.493 118.968 247.501 119.216 246.365 119.216C245.197 119.216 244.141 118.928 243.197 118.352C242.253 117.776 241.509 116.968 240.965 115.928C240.421 114.888 240.149 113.704 240.149 112.376ZM251.285 112.4C251.285 111.408 251.085 110.544 250.685 109.808C250.285 109.072 249.741 108.512 249.053 108.128C248.381 107.728 247.637 107.528 246.821 107.528C246.005 107.528 245.261 107.72 244.589 108.104C243.917 108.488 243.381 109.048 242.981 109.784C242.581 110.52 242.381 111.384 242.381 112.376C242.381 113.384 242.581 114.264 242.981 115.016C243.381 115.752 243.917 116.32 244.589 116.72C245.261 117.104 246.005 117.296 246.821 117.296C247.637 117.296 248.381 117.104 249.053 116.72C249.741 116.32 250.285 115.752 250.685 115.016C251.085 114.264 251.285 113.392 251.285 112.4ZM256.368 112.4C256.368 111.04 256.64 109.856 257.184 108.848C257.728 107.824 258.48 107.032 259.44 106.472C260.416 105.912 261.528 105.632 262.776 105.632C264.392 105.632 265.72 106.024 266.76 106.808C267.816 107.592 268.512 108.68 268.848 110.072H266.496C266.272 109.272 265.832 108.64 265.176 108.176C264.536 107.712 263.736 107.48 262.776 107.48C261.528 107.48 260.52 107.912 259.752 108.776C258.984 109.624 258.6 110.832 258.6 112.4C258.6 113.984 258.984 115.208 259.752 116.072C260.52 116.936 261.528 117.368 262.776 117.368C263.736 117.368 264.536 117.144 265.176 116.696C265.816 116.248 266.256 115.608 266.496 114.776H268.848C268.496 116.12 267.792 117.2 266.736 118.016C265.68 118.816 264.36 119.216 262.776 119.216C261.528 119.216 260.416 118.936 259.44 118.376C258.48 117.816 257.728 117.024 257.184 116C256.64 114.976 256.368 113.776 256.368 112.4ZM279.106 119L273.946 113.192V119H271.762V101.24H273.946V111.68L279.01 105.848H282.058L275.866 112.4L282.082 119H279.106ZM286.946 102.272L286.682 114.272H284.858L284.594 102.272H286.946ZM285.866 119.144C285.45 119.144 285.098 119 284.81 118.712C284.522 118.424 284.378 118.072 284.378 117.656C284.378 117.24 284.522 116.888 284.81 116.6C285.098 116.312 285.45 116.168 285.866 116.168C286.266 116.168 286.602 116.312 286.874 116.6C287.162 116.888 287.306 117.24 287.306 117.656C287.306 118.072 287.162 118.424 286.874 118.712C286.602 119 286.266 119.144 285.866 119.144Z" fill="#00DCB4"/>
</svg>
