<svg width="85" height="121" viewBox="0 0 85 121" fill="none" xmlns="http://www.w3.org/2000/svg">
<path d="M42.0968 14.7837C18.8473 14.7837 0 35.0563 0 58.3057V115.571C1.60511 118.578 4.77267 120.626 8.41921 120.626C12.066 120.626 15.2335 118.578 16.8387 115.571C18.4438 118.578 21.6113 120.626 25.2581 120.626C28.9049 120.626 32.0725 118.578 33.6776 115.571C35.2824 118.578 38.45 120.626 42.0968 120.626C45.5851 120.626 48.6311 118.75 50.2942 115.955C51.9576 118.75 55.0037 120.626 58.4917 120.626C62.1385 120.626 65.306 118.578 66.9111 115.571H67.3549C68.96 118.578 72.1276 120.626 75.7741 120.626C79.4209 120.626 82.5885 118.578 84.1936 115.571V58.306C84.1936 35.0566 65.3462 14.7837 42.0968 14.7837V14.7837Z" fill="white"/>
<path d="M25.7019 52.661V61.0005H25.6895C25.6895 61.0129 25.7019 61.0174 25.7019 61.0239C25.7019 64.2991 23.0446 66.9561 19.7696 66.9561C16.4944 66.9561 13.8373 64.2988 13.8373 61.0239V61.0005H13.812V52.661H13.8834C14.1481 49.6231 16.6626 47.2327 19.7698 47.2327C22.8685 47.2327 25.3829 49.6231 25.6436 52.661H25.7019V52.661ZM70.3235 52.661C70.0626 49.6231 67.5484 47.2327 64.4498 47.2327C61.3425 47.2327 58.8283 49.6231 58.5634 52.661H58.4919V61.0005H58.5173V61.0239C58.5173 64.2991 61.1746 66.9561 64.4495 66.9561C67.7245 66.9561 70.3818 64.2988 70.3818 61.0239C70.3818 61.0174 70.3694 61.0132 70.3694 61.0005H70.3818V52.661H70.3235V52.661Z" fill="#061B2A"/>
<path d="M47.2418 81.5068L47.3472 81.8065L47.6255 82.6533L48.0241 83.9692C48.1715 84.4774 48.333 85.0507 48.4989 85.676C48.6783 86.347 48.8493 87.0203 49.0119 87.6956C49.1892 88.4122 49.3576 89.168 49.5345 89.9496C49.7012 90.7314 49.8771 91.5391 50.0353 92.3599C50.204 93.1807 50.3496 94.0146 50.5054 94.8485C50.647 95.6825 50.7956 96.5161 50.9226 97.3372C51.0468 98.158 51.183 98.9659 51.281 99.7477C51.3805 100.53 51.4526 101.285 51.4995 102.002C51.541 102.718 51.5675 103.396 51.5648 104.021C51.568 104.647 51.5427 105.22 51.5114 105.728C51.4762 106.236 51.4323 106.679 51.3815 107.044C51.286 107.774 51.1743 108.19 51.1743 108.19C49.8319 113.204 44.6795 116.18 39.666 114.838C36.3101 113.939 33.8646 111.319 33.0186 108.19C33.0186 108.19 32.9069 107.774 32.8114 107.044C32.7606 106.679 32.7167 106.236 32.6815 105.728C32.6502 105.22 32.6247 104.647 32.6281 104.021C32.6254 103.396 32.6519 102.718 32.6934 102.002C32.7402 101.285 32.8124 100.529 32.9119 99.7477C33.0101 98.9659 33.146 98.1582 33.2703 97.3372C33.3973 96.5164 33.5459 95.6825 33.6875 94.8485C33.8431 94.0146 33.9887 93.1809 34.1576 92.3599C34.3158 91.5391 34.4919 90.7312 34.6584 89.9496C34.8352 89.1678 35.0037 88.4122 35.181 87.6956C35.3514 86.979 35.5288 86.3016 35.694 85.676C35.8458 85.1053 36.0041 84.5363 36.1687 83.9692L36.5674 82.6533L36.8457 81.8065L36.9511 81.5068C37.9497 78.6652 41.0627 77.1715 43.9043 78.1699C45.5191 78.7371 46.7073 80.0121 47.2418 81.5068ZM40.9496 30.3467C42.2891 30.9802 43.8885 30.4082 44.522 29.0687C44.522 29.0687 44.5646 28.9787 44.6331 28.81C44.7023 28.6413 44.8065 28.3938 44.9206 28.0788C45.0409 27.7638 45.1808 27.3813 45.3261 26.9425C45.4722 26.5037 45.6312 26.0086 45.7878 25.4686C45.9586 24.8907 46.1176 24.3093 46.2645 23.7248C46.4228 23.1059 46.577 22.4536 46.7212 21.7784C46.7971 21.4408 46.8658 21.0977 46.9335 20.7505C47.0044 20.4032 47.0712 20.0515 47.1319 19.6973C47.2641 18.9886 47.3718 18.2685 47.4899 17.5484C47.5948 16.8284 47.7066 16.1083 47.7947 15.3996C47.8914 14.6909 47.9691 13.9934 48.0452 13.3182C48.1162 12.6433 48.1789 11.9907 48.2293 11.3718C48.2786 10.7529 48.3203 10.168 48.3491 9.62805C48.4091 8.54806 48.4285 7.64789 48.428 7.01785C48.4252 6.38782 48.4086 6.0279 48.4086 6.0279C48.2504 2.81296 45.6684 0.157622 42.3875 0.00680953C38.9015 -0.153677 35.9457 2.5421 35.7853 6.0279C35.7853 6.0279 35.7686 6.38782 35.7659 7.01785C35.7654 7.64789 35.7848 8.54781 35.8448 9.62805C35.8736 10.168 35.9152 10.7532 35.9646 11.3718C36.015 11.9907 36.0777 12.6431 36.1487 13.3182C36.2248 13.9932 36.3024 14.6907 36.3992 15.3996C36.4872 16.1083 36.5994 16.8284 36.704 17.5484C36.8221 18.2685 36.9298 18.9886 37.062 19.6973C37.1227 20.0517 37.1895 20.4032 37.2604 20.7505C37.3281 21.0977 37.3968 21.441 37.4727 21.7784C37.612 22.4302 37.7642 23.0791 37.9294 23.7248C38.0857 24.3437 38.2456 24.9286 38.4061 25.4686C38.5503 25.9629 38.7042 26.4543 38.8677 26.9425C39.0131 27.3813 39.153 27.7638 39.2733 28.0788C39.3877 28.3938 39.4916 28.6413 39.5608 28.81C39.6292 28.9787 39.6719 29.0687 39.6719 29.0687C39.9369 29.6299 40.3885 30.0816 40.9496 30.3467V30.3467Z" fill="#933EFF"/>
<path d="M22.4054 73.0526C22.4054 69.9957 31.2215 70.2041 42.0968 70.2041C52.9722 70.2041 61.7883 69.9957 61.7883 73.0526C61.7883 76.1096 48.7321 86.0084 42.0968 86.0084C35.4616 86.0084 22.4054 76.1096 22.4054 73.0526Z" fill="#00BC9A"/>
<path d="M61.7883 72.3651C61.7883 75.4386 52.9722 76.7255 42.0968 76.7255C31.2215 76.7255 22.4054 75.4386 22.4054 72.3651C22.4054 69.2915 35.4616 59.7943 42.0968 59.7943C48.7321 59.7943 61.7883 69.2915 61.7883 72.3651V72.3651Z" fill="#00DCB4"/>
</svg>
